<svg width="40" height="40" viewBox="0 0 40 40" xmlns="http://www.w3.org/2000/svg" xmlns:xlink="http://www.w3.org/1999/xlink">
    <defs>
        <circle id="ybu72q0z7a" cx="20" cy="20" r="20"/>
    </defs>
    <g fill="none" fill-rule="evenodd">
        <mask id="3k57qttccb" fill="#fff">
            <use xlink:href="#ybu72q0z7a"/>
        </mask>
        <use fill="#E8ECF3" xlink:href="#ybu72q0z7a"/>
        <path d="m26.02 32.55 12.11 4.84L39 40H1l.87-2.61 12.11-4.84 5.8 2.9h.44l5.8-2.9zm3.51-1.75.47.2 7 3 .72 2.15-10.5-4.2 2.31-1.15zm-19.06 0 2.31 1.15-10.5 4.2L3 34l7-3 .47-.2zM25 6l2 2v7h1v5h-1v1l-2 4h-4v1h3v2.43l4.32 1.85L20 34.44l-8.32-4.16L16 28.43V25h-1l-2-4v-1h-1v-5h1v-5h2V9h-3l1-3h12z" fill="#A4A9B3" mask="url(#3k57qttccb)"/>
    </g>
</svg>